<svg version="1.1" xmlns="http://www.w3.org/2000/svg" xmlns:xlink="http://www.w3.org/1999/xlink" width="24px" height="24px" viewBox="0,0,256,256"><g fill="#3cb371" fill-rule="nonzero" stroke="none" stroke-width="1" stroke-linecap="butt" stroke-linejoin="miter" stroke-miterlimit="10" stroke-dasharray="" stroke-dashoffset="0" font-family="none" font-weight="none" font-size="none" text-anchor="none" style="mix-blend-mode: normal"><g transform="scale(10.66667,10.66667)"><path d="M12,8c-3.309,0 -6,2.691 -6,6c0,3.309 2.691,6 6,6c3.309,0 6,-2.691 6,-6c0,-3.309 -2.691,-6 -6,-6zM12,19c-2.757,0 -5,-2.243 -5,-5c0,-2.757 2.243,-5 5,-5c2.757,0 5,2.243 5,5c0,2.757 -2.243,5 -5,5zM19.5,4h-1.25l-2.25,-3c-0.47,-0.626 -1.218,-1 -2,-1h-4c-0.782,0 -1.53,0.374 -2,1l-2.25,3h-1.25c-2.481,0 -4.5,2.019 -4.5,4.5v11c0,2.481 2.019,4.5 4.5,4.5h15c2.481,0 4.5,-2.019 4.5,-4.5v-11c0,-2.481 -2.019,-4.5 -4.5,-4.5zM8.8,1.6c0.282,-0.376 0.73,-0.6 1.2,-0.6h4c0.47,0 0.918,0.224 1.2,0.6l1.8,2.4h-10zM23,19.5c0,1.93 -1.57,3.5 -3.5,3.5h-15c-1.93,0 -3.5,-1.57 -3.5,-3.5v-11c0,-1.93 1.57,-3.5 3.5,-3.5h15c1.93,0 3.5,1.57 3.5,3.5z"></path></g></g></svg>