<svg version="1.1" xmlns="http://www.w3.org/2000/svg" xmlns:xlink="http://www.w3.org/1999/xlink" width="24px" height="24px" viewBox="0,0,256,256"><g fill="#3cb371" fill-rule="nonzero" stroke="none" stroke-width="1" stroke-linecap="butt" stroke-linejoin="miter" stroke-miterlimit="10" stroke-dasharray="" stroke-dashoffset="0" font-family="none" font-weight="none" font-size="none" text-anchor="none" style="mix-blend-mode: normal"><g transform="translate(-0.01067,0.01067) scale(10.66667,10.66667)"><path d="M21.062,6.729c-0.035,-0.075 -0.088,-0.139 -0.154,-0.188c-0.174,-0.129 -0.389,-0.288 -0.636,-0.469v-2.958c0,-0.276 -0.224,-0.5 -0.5,-0.5c-0.276,0 -0.5,0.224 -0.5,0.5v2.231c-2.437,-1.752 -6.221,-4.346 -7.272,-4.346c-1.364,0 -7.164,4.242 -8.909,5.542c-0.066,0.05 -0.12,0.115 -0.155,0.191c-0.047,0.103 -1.165,2.58 -1.165,7.727c0,2.249 0.209,5.575 0.448,7.117c0.029,0.19 0.165,0.346 0.35,0.402c0.138,0.042 3.442,1.021 9.432,1.021c5.99,0 9.292,-0.98 9.429,-1.021c0.185,-0.056 0.32,-0.212 0.35,-0.402c0.24,-1.545 0.451,-4.871 0.451,-7.117c0,-5.191 -1.119,-7.629 -1.167,-7.73zM9.251,21.925v-4.8c0,-1.575 1.232,-2.856 2.748,-2.856c1.516,0 2.748,1.281 2.748,2.856v4.8c-0.84,0.047 -1.757,0.075 -2.748,0.075c-0.991,0 -1.908,-0.028 -2.748,-0.075zM20.835,21.102c-0.665,0.167 -2.409,0.549 -5.088,0.757v-4.733c0,-2.126 -1.682,-3.856 -3.748,-3.856c-2.066,0 -3.748,1.73 -3.748,3.856v4.733c-2.68,-0.208 -4.425,-0.591 -5.091,-0.757c-0.213,-1.607 -0.391,-4.581 -0.391,-6.643c0,-4.312 0.823,-6.678 1.028,-7.198c3.486,-2.591 7.479,-5.249 8.2,-5.261c0.719,0.019 4.713,2.676 8.204,5.263c0.204,0.513 1.026,2.85 1.026,7.197c0,2.021 -0.183,5.046 -0.394,6.643z"></path></g></g></svg>