<svg version="1.1" xmlns="http://www.w3.org/2000/svg" xmlns:xlink="http://www.w3.org/1999/xlink" width="24px" height="24px" viewBox="0,0,256,256"><g fill="#3cb371" fill-rule="nonzero" stroke="none" stroke-width="1" stroke-linecap="butt" stroke-linejoin="miter" stroke-miterlimit="10" stroke-dasharray="" stroke-dashoffset="0" font-family="none" font-weight="none" font-size="none" text-anchor="none" style="mix-blend-mode: normal"><g transform="translate(-0.01569,-0.00533) scale(10.66667,10.66667)"><path d="M9.8,9.802c-0.755,0.753 -1.122,1.476 -1.122,2.208c0,0.957 0.64,1.706 1.122,2.187c0.74,0.739 1.47,1.108 2.2,1.108c0.73,0 1.46,-0.37 2.2,-1.108c0.755,-0.753 1.122,-1.476 1.122,-2.208c0,-0.957 -0.64,-1.706 -1.122,-2.187c-1.48,-1.478 -2.92,-1.478 -4.4,0zM13.494,13.49c-1.251,1.248 -2.042,0.944 -2.988,0c-0.565,-0.564 -0.828,-1.034 -0.828,-1.479c0,-0.454 0.271,-0.944 0.828,-1.5c0.583,-0.582 1.065,-0.826 1.511,-0.826c0.511,0 0.972,0.322 1.478,0.826c0.565,0.564 0.828,1.034 0.828,1.479c0,0.454 -0.271,0.944 -0.828,1.5z"></path><g><path d="M9.8,9.802c-0.755,0.753 -1.122,1.476 -1.122,2.208c0,0.957 0.64,1.706 1.122,2.187c0.74,0.739 1.47,1.108 2.2,1.108c0.73,0 1.46,-0.37 2.2,-1.108c0.755,-0.753 1.122,-1.476 1.122,-2.208c0,-0.957 -0.64,-1.706 -1.122,-2.187c-1.48,-1.478 -2.92,-1.478 -4.4,0zM13.494,13.49c-1.251,1.248 -2.042,0.944 -2.988,0c-0.565,-0.564 -0.828,-1.034 -0.828,-1.479c0,-0.454 0.271,-0.944 0.828,-1.5c0.583,-0.582 1.065,-0.826 1.511,-0.826c0.511,0 0.972,0.322 1.478,0.826c0.565,0.564 0.828,1.034 0.828,1.479c0,0.454 -0.271,0.944 -0.828,1.5z"></path><path d="M23.019,11.948c0.008,-1.595 -0.817,-2.481 -2.521,-2.7c-0.188,-0.394 -0.417,-0.787 -0.694,-1.188c1.205,-1.456 1.21,-2.694 0.026,-3.876c-1.183,-1.181 -2.425,-1.175 -3.884,0.029c-0.401,-0.274 -0.794,-0.501 -1.188,-0.688c-0.217,-1.706 -1.134,-2.524 -2.705,-2.524c-1.602,0.008 -2.495,0.849 -2.725,2.569c-0.392,0.189 -0.791,0.421 -1.19,0.691c-1.451,-1.197 -2.694,-1.194 -3.89,0c-1.178,1.175 -1.18,2.448 -0.001,3.882c-0.273,0.4 -0.506,0.798 -0.696,1.189c-1.719,0.229 -2.56,1.122 -2.568,2.721c-0.008,1.595 0.817,2.481 2.521,2.7c0.188,0.394 0.417,0.787 0.694,1.188c-1.205,1.456 -1.21,2.694 -0.026,3.876c1.184,1.182 2.425,1.176 3.884,-0.029c0.401,0.274 0.794,0.501 1.188,0.688c0.216,1.697 1.113,2.524 2.682,2.524c1.605,0 2.519,-0.849 2.749,-2.569c0.392,-0.189 0.791,-0.421 1.19,-0.691c1.451,1.197 2.694,1.193 3.89,0c1.178,-1.175 1.18,-2.448 0.001,-3.882c0.273,-0.4 0.506,-0.798 0.696,-1.189c1.719,-0.229 2.56,-1.122 2.568,-2.721zM19.659,14.001c-0.227,0.515 -0.544,1.051 -0.942,1.594c-0.142,0.193 -0.127,0.459 0.036,0.635c1.373,1.487 0.898,2.2 0.295,2.802c-0.63,0.628 -1.321,1.078 -2.812,-0.295c-0.175,-0.162 -0.44,-0.176 -0.634,-0.036c-0.541,0.395 -1.077,0.71 -1.595,0.937c-0.167,0.073 -0.282,0.232 -0.297,0.415c-0.139,1.615 -0.779,1.942 -1.766,1.947c-1.008,-0.027 -1.609,-0.304 -1.734,-1.9c-0.015,-0.186 -0.131,-0.348 -0.302,-0.421c-0.521,-0.222 -1.041,-0.526 -1.588,-0.929c-0.089,-0.065 -0.193,-0.097 -0.296,-0.097c-0.122,0 -0.243,0.044 -0.338,0.132c-1.503,1.383 -2.211,0.919 -2.807,0.324c-0.595,-0.594 -1.06,-1.299 0.323,-2.797c0.163,-0.177 0.178,-0.444 0.035,-0.637c-0.4,-0.541 -0.716,-1.075 -0.937,-1.588c-0.073,-0.17 -0.234,-0.286 -0.419,-0.301c-1.587,-0.126 -1.903,-0.755 -1.898,-1.729c0.005,-0.984 0.333,-1.622 1.946,-1.761c0.182,-0.016 0.341,-0.129 0.415,-0.296c0.227,-0.515 0.544,-1.051 0.942,-1.594c0.142,-0.193 0.127,-0.459 -0.036,-0.635c-1.373,-1.487 -0.898,-2.2 -0.295,-2.802c0.606,-0.604 1.321,-1.08 2.812,0.295c0.176,0.163 0.441,0.178 0.634,0.036c0.541,-0.395 1.077,-0.71 1.595,-0.937c0.167,-0.073 0.282,-0.232 0.297,-0.415c0.139,-1.615 0.779,-1.942 1.766,-1.947c0.99,-0.027 1.608,0.304 1.734,1.9c0.015,0.186 0.131,0.348 0.302,0.421c0.521,0.222 1.041,0.526 1.588,0.929c0.193,0.142 0.458,0.127 0.635,-0.035c1.504,-1.382 2.212,-0.918 2.807,-0.324c0.595,0.594 1.06,1.299 -0.323,2.797c-0.163,0.177 -0.178,0.444 -0.035,0.637c0.4,0.541 0.716,1.075 0.937,1.588c0.073,0.17 0.234,0.286 0.419,0.301c1.587,0.126 1.903,0.755 1.898,1.729c-0.005,0.984 -0.333,1.622 -1.946,1.761c-0.182,0.016 -0.341,0.129 -0.415,0.296z"></path></g></g></g></svg>